HIERARCHY
ROOT Hips
{
	OFFSET 86.025398 -24.216915 94.805092
	CHANNELS 6 Xposition Yposition Zposition Xrotation Yrotation Zrotation
	JOINT spine
	{
		OFFSET 0.000000 -0.448574 7.800591
		CHANNELS 3 Xrotation Yrotation Zrotation
		JOINT spine1
		{
			OFFSET 0.000000 -0.000002 10.136398
			CHANNELS 3 Xrotation Yrotation Zrotation
			JOINT spine2
			{
				OFFSET 0.000000 0.000000 9.712509
				CHANNELS 3 Xrotation Yrotation Zrotation
				JOINT Neck
				{
					OFFSET 0.000000 -1.188875 24.936111
					CHANNELS 3 Xrotation Yrotation Zrotation
					JOINT Head
					{
						OFFSET 0.000000 0.000000 7.533844
						CHANNELS 3 Xrotation Yrotation Zrotation
						End Site
						{
							OFFSET 0.000000 6.014017 18.236099
						}
					}
				}
				JOINT RightShoulder
				{
					OFFSET -4.089653 0.569454 10.488800
					CHANNELS 3 Xrotation Yrotation Zrotation
					JOINT RightArm
					{
						OFFSET 0.000000 -0.000004 13.757004
						CHANNELS 3 Xrotation Yrotation Zrotation
						JOINT RightArmRoll
						{
							OFFSET 0.000000 0.000000 6.944778
							CHANNELS 3 Xrotation Yrotation Zrotation
							JOINT RightForeArm
							{
								OFFSET 0.000000 -0.000004 20.227692
								CHANNELS 3 Xrotation Yrotation Zrotation
								JOINT RightForeArmRoll
								{
									OFFSET 0.000000 -0.000002 7.793121
									CHANNELS 3 Xrotation Yrotation Zrotation
									JOINT RightHand
									{
										OFFSET 0.000000 -0.000002 15.639099
										CHANNELS 3 Xrotation Yrotation Zrotation
										End Site
										{
											OFFSET 0.000000 0.000000 0.100006
										}
									}
								}
							}
						}
					}
				}
				JOINT LeftShoulder
				{
					OFFSET 4.089653 0.569454 10.488800
					CHANNELS 3 Xrotation Yrotation Zrotation
					JOINT LeftArm
					{
						OFFSET 0.000000 -0.000004 13.757004
						CHANNELS 3 Xrotation Yrotation Zrotation
						JOINT LeftArmRoll
						{
							OFFSET 0.000000 0.000000 6.944778
							CHANNELS 3 Xrotation Yrotation Zrotation
							JOINT LeftForeArm
							{
								OFFSET 0.000000 -0.000004 20.227692
								CHANNELS 3 Xrotation Yrotation Zrotation
								JOINT LeftForeArmRoll
								{
									OFFSET 0.000000 -0.000002 7.793121
									CHANNELS 3 Xrotation Yrotation Zrotation
									JOINT LeftHand
									{
										OFFSET 0.000000 -0.000002 15.639099
										CHANNELS 3 Xrotation Yrotation Zrotation
										End Site
										{
											OFFSET 0.000000 0.000000 0.100006
										}
									}
								}
							}
						}
					}
				}
			}
		}
	}
	JOINT RightUpLeg
	{
		OFFSET -6.914162 1.063580 -1.267876
		CHANNELS 3 Xrotation Yrotation Zrotation
		JOINT RightUpLegRoll
		{
			OFFSET 0.000000 -0.000004 18.337799
			CHANNELS 3 Xrotation Yrotation Zrotation
			JOINT RightLeg
			{
				OFFSET 0.000000 0.000004 -22.708496
				CHANNELS 3 Xrotation Yrotation Zrotation
				JOINT RightLegRoll
				{
					OFFSET 0.000000 -0.000004 22.782799
					CHANNELS 3 Xrotation Yrotation Zrotation
					JOINT RightFoot
					{
						OFFSET 0.000000 -0.000002 18.962898
						CHANNELS 3 Xrotation Yrotation Zrotation
						JOINT RightToeBase
						{
							OFFSET 0.000000 -0.000004 15.852005
							CHANNELS 3 Xrotation Yrotation Zrotation
							End Site
							{
								OFFSET 0.006721 0.884892 7.677017
							}
						}
					}
				}
			}
		}
	}
	JOINT LeftUpLeg
	{
		OFFSET 6.914162 1.063580 -1.267876
		CHANNELS 3 Xrotation Yrotation Zrotation
		JOINT LeftUpLegRoll
		{
			OFFSET 0.000000 -0.000004 18.337898
			CHANNELS 3 Xrotation Yrotation Zrotation
			JOINT LeftLeg
			{
				OFFSET 0.000000 -0.000002 22.708397
				CHANNELS 3 Xrotation Yrotation Zrotation
				JOINT LeftLegRoll
				{
					OFFSET 0.000000 -0.000004 22.993393
					CHANNELS 3 Xrotation Yrotation Zrotation
					JOINT LeftFoot
					{
						OFFSET 0.000000 -0.000004 18.752197
						CHANNELS 3 Xrotation Yrotation Zrotation
						JOINT LeftToeBase
						{
							OFFSET 0.000000 -0.000002 15.852005
							CHANNELS 3 Xrotation Yrotation Zrotation
							End Site
							{
								OFFSET -0.030113 0.884892 7.677017
							}
						}
					}
				}
			}
		}
	}
}
MOTION
Frames: 6
Frame Time: 0.041667
49.649696 -15.431509 93.710594 -2.953717 -1.460058 6.866171 2.114296 0.216194 0.154569 8.230925 0.458669 0.278615 9.876033 0.461974 0.273100 16.392879 19.217883 8.597024 -5.928241 -9.855390 8.833722 -6.363419 -42.115793 -5.953258 143.864261 -14.671868 65.716153 -0.000024 -0.000003 0.000010 68.226917 -20.766391 16.031349 0.000021 0.000002 -3.000000 -4.999953 -7.999205 -0.000179 1.057904 67.476737 -0.136400 -82.385947 100.590136 74.318988 -0.000000 -0.000027 0.000001 34.066275 7.674950 -0.419378 -0.000003 0.000012 3.000001 -5.000172 7.999032 -0.000110 -7.821646 176.987236 -2.396622 -179.999991 0.000005 -1.315994 162.987657 -1.870468 -0.809183 0.000000 0.000007 0.678604 73.786677 8.299442 -2.370397 25.458630 -7.348355 0.002658 -6.824614 178.149201 5.085952 -0.000004 -0.000005 -1.067980 -14.852489 5.131376 1.018919 -0.000001 -0.000004 -0.193443 71.061705 -7.022201 -1.625355 25.456103 7.358165 -0.000517 
49.649799 -15.434811 93.704887 -2.943050 -1.476651 6.932773 2.115367 0.214993 0.157390 8.233071 0.455002 0.285747 9.878180 0.458393 0.280278 16.435180 19.141786 8.639735 -6.026386 -9.748727 8.868913 -6.381630 -42.221822 -5.987791 143.825766 -14.884661 65.629300 -0.000023 -0.000006 0.000010 68.355666 -20.581199 15.929705 0.000019 0.000003 -3.000001 -4.999953 -7.999205 -0.000179 1.052091 67.457673 -0.132188 -82.558662 100.555001 74.547628 -0.000001 -0.000026 0.000001 34.236921 7.687374 -0.425444 -0.000003 0.000010 3.000001 -5.000176 7.999034 -0.000110 -7.864263 177.015294 -2.376446 -179.999991 0.000005 -1.315994 162.905817 -1.879208 -0.811786 -0.000000 0.000007 0.681362 73.814141 8.296618 -2.369134 25.458630 -7.348355 0.002658 -6.870785 178.158299 5.080458 -0.000004 -0.000005 -1.066310 -14.885984 5.133562 1.021414 -0.000001 -0.000004 -0.193720 71.028763 -7.015026 -1.647928 25.453682 7.358187 -0.002017 
49.669502 -15.457208 93.707794 -2.932408 -1.493083 6.998626 2.116344 0.213877 0.160133 8.235049 0.451449 0.292775 9.880155 0.454925 0.287348 16.478320 19.066697 8.681790 -6.124862 -9.643736 8.903957 -6.399023 -42.327287 -6.021274 143.787285 -15.096642 65.537905 -0.000023 -0.000003 0.000010 68.488008 -20.395797 15.827201 0.000019 0.000004 -3.000000 -4.999955 -7.999208 -0.000179 1.045960 67.439922 -0.127447 -82.739921 100.518876 74.785141 0.000001 -0.000025 0.000001 34.407761 7.700563 -0.431780 -0.000004 0.000012 3.000001 -5.000174 7.999035 -0.000111 -7.907224 177.043325 -2.356526 -179.999991 0.000005 -1.315995 162.823596 -1.886980 -0.814147 -0.000000 0.000006 0.684146 73.841838 8.293789 -2.367988 25.458632 -7.348355 0.002658 -6.915925 178.167424 5.075596 -0.000003 -0.000005 -1.064660 -14.917266 5.135711 1.023717 -0.000001 -0.000004 -0.193933 70.997802 -7.007684 -1.670746 25.449947 7.358211 -0.004265 
49.663197 -15.451910 93.702690 -2.921766 -1.509396 7.063942 2.117265 0.212821 0.162823 8.236894 0.447977 0.299728 9.881998 0.451535 0.294340 16.522170 18.992437 8.723289 -6.223546 -9.539954 8.939005 -6.415876 -42.432390 -6.054018 143.748721 -15.307805 65.443908 -0.000023 -0.000002 0.000010 68.623081 -20.210535 15.723889 0.000021 0.000002 -3.000001 -4.999953 -7.999204 -0.000179 1.039603 67.422956 -0.122347 -82.927943 100.482137 75.029546 -0.000001 -0.000026 0.000002 34.578680 7.714298 -0.438325 -0.000002 0.000011 3.000000 -5.000174 7.999034 -0.000111 -7.950430 177.071370 -2.336785 -179.999991 0.000005 -1.315995 162.740950 -1.895687 -0.815830 0.000000 0.000007 0.686948 73.869677 8.290998 -2.366946 25.458632 -7.348355 0.002658 -6.960334 178.176522 5.071195 -0.000003 -0.000005 -1.063040 -14.947049 5.137845 1.025892 -0.000002 -0.000004 -0.194102 70.968220 -7.000220 -1.693651 25.445503 7.358236 -0.007061 
49.669891 -15.455912 93.691383 -2.911144 -1.525629 7.128957 2.118155 0.211799 0.165482 8.238679 0.444552 0.306638 9.883787 0.448192 0.301289 16.566265 18.918649 8.764580 -6.322311 -9.436933 8.974267 -6.432440 -42.537206 -6.086375 143.709721 -15.518890 65.346694 -0.000024 -0.000002 0.000011 68.759883 -20.025695 15.619816 0.000022 0.000004 -3.000000 -4.999955 -7.999206 -0.000178 1.033116 67.406495 -0.117038 -83.120247 100.444940 75.278356 0.000000 -0.000026 0.000001 34.749660 7.728364 -0.445016 -0.000003 0.000011 3.000001 -5.000175 7.999035 -0.000111 -7.993773 177.098431 -2.317033 -179.999991 0.000005 -1.315995 162.658114 -1.904380 -0.818543 0.000000 0.000006 0.689759 73.897709 8.288147 -2.365822 25.458632 -7.348355 0.002658 -7.004307 178.185634 5.067046 -0.000003 -0.000004 -1.061430 -14.976025 5.139968 1.027999 -0.000001 -0.000004 -0.194245 70.939458 -6.992643 -1.716684 25.440448 7.358270 -0.010147 
49.677696 -15.462008 93.691582 -2.900513 -1.541823 7.193901 2.119023 0.210787 0.168132 8.240436 0.441138 0.313534 9.885539 0.444863 0.308229 16.610477 18.845067 8.805897 -6.421081 -9.334242 9.009772 -6.448994 -42.642015 -6.118698 143.670447 -15.729121 65.250846 -0.000023 -0.000005 0.000011 68.897600 -19.841466 15.514889 0.000021 0.000003 -2.999999 -4.999954 -7.999207 -0.000178 1.026596 67.390232 -0.111684 -83.314989 100.407845 75.529612 0.000001 -0.000027 0.000001 34.920568 7.742540 -0.451807 -0.000001 0.000010 3.000001 -5.000175 7.999033 -0.000111 -8.037163 177.126462 -2.297475 -179.999991 0.000005 -1.315995 162.575195 -1.912107 -0.821001 -0.000000 0.000007 0.692572 73.925665 8.285335 -2.364787 25.458629 -7.348355 0.002658 -7.048165 178.194731 5.062960 -0.000004 -0.000005 -1.059820 -15.004696 5.142085 1.030082 -0.000001 -0.000004 -0.194380 70.910908 -6.985021 -1.739891 25.435302 7.358299 -0.013325 
